<svg xmlns="http://www.w3.org/2000/svg" version="1.1" xmlns:xlink="http://www.w3.org/1999/xlink" xmlns:svgjs="http://svgjs.dev/svgjs" width="2000" height="2759" viewBox="0 0 2000 2759"><g transform="matrix(1,0,0,1,1.7270367865495473,1.117004048582885)"><svg viewBox="0 0 179 247" data-background-color="#ffffff" preserveAspectRatio="xMidYMid meet" height="2759" width="2000" xmlns="http://www.w3.org/2000/svg" xmlns:xlink="http://www.w3.org/1999/xlink"><g id="tight-bounds" transform="matrix(1,0,0,1,-0.15456979239618818,-0.09999999999999432)"><svg viewBox="0 0 179.30913958479238 247.2" height="247.2" width="179.30913958479238"><g><svg viewBox="0 0 395.52 545.2736220050008" height="247.2" width="179.30913958479238"><g transform="matrix(1,0,0,1,0,284.2662990183462)"><svg viewBox="0 0 395.52 261.0073229866546" height="261.0073229866546" width="395.52"><g id="textblocktransform"><svg viewBox="0 0 395.52 261.0073229866546" height="261.0073229866546" width="395.52" id="textblock"><g><svg viewBox="0 0 395.52 171.44285438765667" height="171.44285438765667" width="395.52"><g transform="matrix(1,0,0,1,0,0)"><svg width="395.52" viewBox="1.6 -35.2 103.69000000000001 44.95" height="171.44285438765667" data-palette-color="#556970"><path d="M17.55-34.85L21.35-35.2 17.2-5.45 16.95-0.15 13.15 0.2 14.6-10.05 14.1-10.05Q10.4-3.7 6.15 0.35L6.15 0.35 5.4 0.35Q1.6-1.8 1.6-7.5L1.6-7.5Q1.6-11.1 2.95-14.5 4.3-17.9 6.98-20.3 9.65-22.7 13.4-23.25L13.4-23.25 13.65-23.25 16.3-22.3 17.4-30 17.55-34.85ZM6.5-3.75Q7.1-3.75 8.55-5.38 10-7 11.9-10.13 13.8-13.25 15.65-17.45L15.65-17.45 15.85-19.05 12.7-20.2Q10.35-20.2 8.6-18.63 6.85-17.05 5.9-14.38 4.95-11.7 4.95-8.45L4.95-8.45Q4.95-5.95 5.43-4.85 5.9-3.75 6.5-3.75L6.5-3.75ZM30.75-23.15L28.25-5.45 28.05-0.15 24.25 0.2 26.85-17.95 27.05-22.8 30.75-23.15ZM29.9-32.95Q30.85-32.95 31.42-32.4 32-31.85 32-30.85L32-30.85Q32-29.8 31.4-29.15 30.8-28.5 29.8-28.5L29.8-28.5Q28.8-28.5 28.22-29.1 27.65-29.7 27.65-30.7L27.65-30.7Q27.65-31.7 28.25-32.33 28.85-32.95 29.9-32.95L29.9-32.95ZM47.45-7L48.05-6.95 49.25-5.4Q47.65-2.95 45.75-1.55 43.84-0.15 41.45 0.35L41.45 0.35 40.84 0.35Q37.65-0.05 36.17-2 34.7-3.95 34.7-7.8L34.7-7.8Q34.7-12.2 36.12-15.7 37.55-19.2 40.02-21.2 42.5-23.2 45.7-23.3L45.7-23.3 46.09-23.25Q48.25-23 49.37-21.85 50.5-20.7 50.5-18.8L50.5-18.8Q50.5-15.8 47.4-13.28 44.3-10.75 38.2-8.85L38.2-8.85Q38.2-5.7 39.02-4.25 39.84-2.8 41.59-2.8L41.59-2.8Q43.09-2.8 44.47-3.8 45.84-4.8 47.45-7L47.45-7ZM44.9-20.6Q42.34-20.6 40.57-18.13 38.8-15.65 38.34-11.5L38.34-11.5Q42.65-12.9 44.87-14.68 47.09-16.45 47.09-18.55L47.09-18.55Q47.09-20.6 44.9-20.6L44.9-20.6ZM61.44-20L59.09-5.55 58.99-4.75Q58.99-4 59.34-3.55 59.69-3.1 60.34-3.1L60.34-3.1Q62.14-3.1 64.69-7.1L64.69-7.1 65.14-7.1 66.19-5.75Q64.44-2.85 63.04-1.5 61.64-0.15 59.89 0.35L59.89 0.35Q57.89 0.35 56.77-0.75 55.64-1.85 55.64-3.85L55.64-3.85 55.74-5.05 57.89-17.95 58.14-20 54.79-20 54.54-20.25 54.79-22.5 58.49-22.5 59.19-28.05 62.64-29.65 62.94-29.35 61.84-22.5 67.94-22.5 68.24-22.1 67.99-20 61.44-20ZM84.54-23.1L85.74-23 84.99-18 84.69-17.85 84.24-17.9Q81.84-17.55 79.64-14.63 77.44-11.7 74.54-4.5L74.54-4.5 74.34-0.15 70.54 0.2 73.14-17.95 73.39-22.8 77.04-23.15 75.54-12.15 75.94-12.15Q77.74-15.8 79.81-18.48 81.89-21.15 84.54-23.1L84.54-23.1ZM104.09-23.15Q105.29-20.95 105.29-19.1L105.29-19.1Q105.29-16.25 103.29-12.7L103.29-12.7 96.19-0.15Q93.19 5.15 90.66 7.45 88.14 9.75 85.09 9.75L85.09 9.75Q83.44 9.75 81.34 9.05L81.34 9.05 81.44 5.85 81.89 5.55Q83.59 6 85.04 6L85.04 6Q87.34 6 89.09 4.67 90.84 3.35 92.69 0.25L92.69 0.25 88.14-22.75 91.84-23.15 92.39-19.15 94.79-4.45 95.29-4.45 100.19-13.45Q101.84-16.3 101.84-18.85L101.84-18.85Q101.84-20.55 100.69-22.15L100.69-22.15 100.84-22.6 104.09-23.15Z" opacity="1" transform="matrix(1,0,0,1,0,0)" fill="#556970" class="wordmark-text-0" data-fill-palette-color="primary" id="text-0"></path></svg></g></svg></g><g transform="matrix(1,0,0,1,0,211.9163976800771)"><svg viewBox="0 0 395.52 49.09092530657748" height="49.09092530657748" width="395.52"><g transform="matrix(1,0,0,1,0,0)"><svg width="395.52" viewBox="-1 -34.85 403.65 50.1" height="49.09092530657748" data-palette-color="#556970"><path d="M10.35 13.85L10.35 13.85Q10.35 14.45 9.75 14.45L9.75 14.45 9.7 14.45Q8.05 14.45 5.98 13.3 3.9 12.15 3.9 10.65 3.9 9.15 5.8 5.43 7.7 1.7 7.7 0.45L7.7 0.45Q7.7-0.9 6.4-4.4L6.4-4.4Q4.75-8.95 3.78-11.8 2.8-14.65 1.68-16.82 0.55-19 0.05-19.4L0.05-19.4-0.45-19.75Q-1-20.05-1-20.4L-1-20.4Q-1-21.1 1.18-21.83 3.35-22.55 5-22.55L5-22.55Q5.75-22.55 6.25-21.35L6.25-21.35Q7.15-19 8.2-14.85L8.2-14.85Q10.75-6.35 11.4-6.35L11.4-6.35Q11.85-6.35 13.23-9.85 14.6-13.35 14.6-15.5L14.6-15.5Q14.6-19.25 12.4-19.9L12.4-19.9Q11.9-20 11.9-20.4L11.9-20.4Q11.9-21.3 14.25-22.13 16.6-22.95 18.5-22.95L18.5-22.95Q20.15-22.95 20.15-20.8L20.15-20.8Q20.15-19.15 19.45-16.95 18.75-14.75 18.15-13.48 17.55-12.2 15.18-7.58 12.8-2.95 11.25 0.55L11.25 0.55Q9.55 4.75 9.55 9.1L9.55 9.1Q9.55 11.4 9.95 12.55 10.35 13.7 10.35 13.85ZM24.85-18.85L24.85-18.85Q23.55-18.8 22.98-18.78 22.4-18.75 22.4-19.05 22.4-19.35 22.7-19.65L22.7-19.65Q25.9-22.6 33.5-22.6L33.5-22.6Q36.1-22.6 37.6-22.15L37.6-22.15 38.1-22Q38.7-21.75 38.7-21.45L38.7-21.45Q38.7-21.2 38.35-21.05L38.35-21.05Q37-20.65 35.75-19.78 34.5-18.9 34.5-18.55L34.5-18.55 34.8-18.2Q36.4-17.3 37.28-15.35 38.15-13.4 38.25-11.9L38.25-11.9 38.35-10.35Q38.35-5.4 35.6-2.2 32.85 1 28.1 1L28.1 1Q25.7 1 23.95 0.15 22.2-0.7 21.38-1.78 20.55-2.85 20.05-4.2L20.05-4.2Q19.45-6.05 19.45-8.03 19.45-10 20.13-12 20.8-14 21.68-14.95 22.55-15.9 23.65-16.5L23.65-16.5Q25.05-17.25 25.9-17.25 26.75-17.25 26.75-16.9L26.75-16.9 26.45-16.4Q25.35-15.1 24.88-13 24.4-10.9 24.4-9.28 24.4-7.65 24.8-6.05 25.2-4.45 25.7-3.68 26.2-2.9 26.85-2.5L26.85-2.5Q27.8-1.9 28.85-1.9 29.9-1.9 30.9-2.73 31.9-3.55 32.35-4.9L32.35-4.9Q33.25-7.4 33.25-10.05L33.25-10.05Q33.25-14.25 31.13-16.55 29-18.85 24.85-18.85ZM58.65-22.25L58.65-22.25Q57.75-16.85 57.75-8.5L57.75-8.5Q57.75-2.35 58.25-0.4L58.25-0.4 58.45 0.25Q58.45 0.9 57.35 0.9L57.35 0.9Q53.5 0.9 52.95-1.25L52.95-1.25Q52.9-1.5 52.73-1.5 52.55-1.5 52.4-1.3L52.4-1.3Q50.85 0.75 47.6 0.75L47.6 0.75Q45.8 0.75 43.85-0.15L43.85-0.15Q42.65-0.7 41.9-2.08 41.15-3.45 41.15-5.45L41.15-5.45 41.9-16.4Q41.9-19.85 41.2-21.3L41.2-21.3Q40.95-21.85 40.95-22L40.95-22Q40.95-22.3 41.2-22.4L41.2-22.4Q42-22.65 43.25-22.65L43.25-22.65Q48.1-22.65 48.1-18.65L48.1-18.65Q48.1-17.4 47.08-12.95 46.05-8.5 46.05-6.63 46.05-4.75 46.88-3.75 47.7-2.75 49.18-2.75 50.65-2.75 51.5-3.8 52.35-4.85 52.5-5.9L52.5-5.9 52.65-6.95Q52.85-8.7 52.85-13.1 52.85-17.5 52.58-18.68 52.3-19.85 52.3-20.15L52.3-20.15Q52.3-21.4 54.3-22.13 56.3-22.85 57.9-22.85L57.9-22.85Q58.65-22.85 58.65-22.25ZM76.55-17.2L76.3-13.4 76.5-11.65Q76.5-10.7 74.7-10.7L74.7-10.7Q71.05-10.7 71.05-13.45L71.05-13.45Q71.05-14.1 71.4-15.25 71.75-16.4 71.75-17.25 71.75-18.1 71.25-18.73 70.75-19.35 69.8-19.35 68.85-19.35 68.18-18.68 67.5-18 67.35-17.3L67.35-17.3 67.15-16.6Q66.85-15.05 66.85-11.43 66.85-7.8 66.95-5.73 67.05-3.65 67.15-2.88 67.25-2.1 67.25-1.95L67.25-1.95Q67.25-0.7 65.7 0.08 64.15 0.85 62.6 0.85 61.05 0.85 61.05 0.2L61.05 0.2 61.3-1.35Q62-5.7 62-12.7 62-19.7 61.5-22.2L61.5-22.2Q61.5-22.8 62.55-22.8L62.55-22.8Q65.25-22.8 66.15-20.95L66.15-20.95Q66.2-20.75 66.33-20.75 66.45-20.75 67-21.2L67-21.2Q68.65-22.55 70.9-22.55L70.9-22.55Q72.3-22.55 73.7-22L73.7-22Q76.55-20.85 76.55-17.2L76.55-17.2ZM94.25-26.85L94.25-26.85 94.2-22Q94.2-21.7 94.4-21.7 94.6-21.7 94.8-21.85L94.8-21.85Q96.05-22.7 98.75-22.7L98.75-22.7Q103.3-22.7 105.05-19.6L105.05-19.6Q105.7-18.45 105.7-16.55 105.7-14.65 105.48-11.3 105.25-7.95 105.25-6.55L105.25-6.55Q105.25-1.65 106.65-0.05L106.65-0.05Q106.9 0.2 106.9 0.45L106.9 0.45Q106.9 0.95 104.75 0.95L104.75 0.95Q98.95 0.95 98.95-4.45L98.95-4.45Q98.95-6.55 99.95-10.35 100.95-14.15 100.95-15.95 100.95-17.75 100.1-18.73 99.25-19.7 97.75-19.7 96.25-19.7 95.38-19.05 94.5-18.4 94.3-17.7L94.3-17.7 94.15-17.05Q94.1-16.1 94.1-11 94.1-5.9 94.35-4.38 94.6-2.85 94.6-2.65L94.6-2.65Q94.6-1.2 92.65-0.08 90.7 1.05 88.8 1.05L88.8 1.05Q88.1 1.05 88.1 0.25L88.1 0.25 88.2-0.7Q89.3-9.1 89.3-18.9L89.3-18.9Q89.3-22.7 89-26.6L89-26.6 88.95-27.7Q88.85-29.1 88.38-30.1 87.9-31.1 87.5-31.4L87.5-31.4 87.05-31.65Q86.7-31.85 86.7-32.1L86.7-32.1Q86.7-32.8 89.05-33.83 91.4-34.85 92.68-34.85 93.95-34.85 94.05-34.3L94.05-34.3Q94.25-31.75 94.25-26.85ZM113.15-12.7L113.15-12.7 113.2-11.45Q113.2-11.15 113.6-11.15L113.6-11.15Q115.2-11.3 116.4-11.98 117.6-12.65 118.2-13.5L118.2-13.5Q119.4-15.35 119.5-16.7L119.5-16.7 119.55-17.3Q119.55-20 117.4-20L117.4-20Q115.8-20 114.8-18.6L114.8-18.6Q113.15-16.4 113.15-12.7ZM124.05-6.05L124.05-6.05Q124.05-4.15 123.28-2.73 122.5-1.3 121.53-0.63 120.55 0.05 119.25 0.45L119.25 0.45Q117.6 0.95 116.1 0.95L116.1 0.95Q111.9 0.95 109.9-2.2 107.9-5.35 107.9-10.23 107.9-15.1 110.38-18.9 112.85-22.7 117.8-22.7L117.8-22.7Q122.3-22.7 123.9-19.55L123.9-19.55Q124.55-18.35 124.55-17.28 124.55-16.2 124.45-15.58 124.35-14.95 123.75-13.7 123.15-12.45 122.15-11.45 121.15-10.45 119-9.55 116.85-8.65 113.95-8.35L113.95-8.35Q113.55-8.35 113.55-8L113.55-8Q113.55-7.55 113.88-6.68 114.2-5.8 114.6-5.2L114.6-5.2Q115.7-3.8 117.85-3.8L117.85-3.8Q120-3.8 121.5-5.2L121.5-5.2Q122.3-5.95 122.8-7.05L122.8-7.05Q123-7.45 123.33-7.45 123.65-7.45 123.85-6.9 124.05-6.35 124.05-6.05ZM142.8-15L142.8-15 142.7-8.6Q142.7-1.95 144.15-0.6L144.15-0.6Q144.35-0.4 144.35-0.15L144.35-0.15Q144.35 0.6 141.13 0.6 137.9 0.6 137.7-1.3L137.7-1.3Q137.65-1.75 137.65-3.15L137.65-3.15 137.85-11.15Q137.85-11.5 137.45-11.5L137.45-11.5Q135.05-11.5 132.95-10.15 130.85-8.8 130.85-6.7L130.85-6.7Q130.85-5.6 131.45-4.85 132.05-4.1 132.93-4.1 133.8-4.1 134.38-4.45 134.95-4.8 135.05-4.85L135.05-4.85Q135.9-4.75 135.9-3.08 135.9-1.4 134.35-0.38 132.8 0.65 131.1 0.65 129.4 0.65 128.18 0.05 126.95-0.55 126.4-1.3 125.85-2.05 125.5-3L125.5-3Q125.15-4.15 125.15-5L125.15-5Q125.15-8.5 127.35-10.6 129.55-12.7 133-13.6L133-13.6Q137.55-14.5 137.75-15.25L137.75-15.25Q137.9-15.8 137.9-17.1L137.9-17.1Q137.9-19.75 135.2-19.75L135.2-19.75Q134.05-19.75 133.15-19.03 132.25-18.3 132.25-17.2L132.25-17.2 132.55-16Q132.45-15.15 130.75-15L130.75-15 130.2-14.95Q128.7-14.95 127.83-15.7 126.95-16.45 126.95-17.7L126.95-17.7Q126.95-18.5 127.48-19.48 128-20.45 128.8-21.05 129.6-21.65 131.28-22.13 132.95-22.6 134.5-22.6 136.05-22.6 136.9-22.5 137.75-22.4 139.23-22.03 140.7-21.65 141.68-20.6 142.65-19.55 142.73-18.38 142.8-17.2 142.8-15ZM152.1-28.6L152.1-28.6 151.8-10.25Q151.8-1.65 152.35 0.05L152.35 0.05Q152.5 0.35 152.5 0.65L152.5 0.65Q152.5 1.25 151.05 1.25 149.6 1.25 147.83 0.53 146.05-0.2 146.05-1.35L146.05-1.35Q147.05-8.35 147.05-20.05L147.05-20.05 146.85-27.7Q146.75-29.1 146.28-30.1 145.8-31.1 145.35-31.4L145.35-31.4 144.95-31.65Q144.6-31.85 144.6-32.1L144.6-32.1Q144.6-32.8 146.78-33.83 148.95-34.85 151-34.85L151-34.85Q151.8-34.85 151.9-34.3L151.9-34.3Q152.1-33 152.1-28.6ZM154.75-19.5L154.75-19.5 154.9-21.5Q154.95-21.95 155.6-21.95L155.6-21.95 157.35-21.95 157.15-25.95 157.15-26.15Q157.15-27.3 158.9-28.35 160.65-29.4 162.1-29.4L162.1-29.4Q162.55-29.4 162.55-29L162.55-29 162.55-28.95Q162.35-27.6 162.15-22L162.15-22Q164.35-22 164.95-22.1 165.55-22.2 165.6-22.2L165.6-22.2Q165.95-22.2 165.95-21.6 165.95-21 165.4-20.08 164.85-19.15 164.2-19.1L164.2-19.1 162.1-19.1Q162.05-17.4 162.05-13.38 162.05-9.35 162.13-6.75 162.2-4.15 162.3-2.83 162.4-1.5 162.53-0.7 162.65 0.1 162.73 0.45 162.8 0.8 162.8 0.9L162.8 0.9Q162.8 1.4 162.15 1.45L162.15 1.45Q160.2 1.45 158.28 0.9 156.35 0.35 156.35-1L156.35-1Q157.4-9.4 157.4-19.05L157.4-19.05Q156.05-19.05 155.35-18.95L155.35-18.95 155.3-18.95Q154.85-18.95 154.75-19.5ZM173.15-26.85L173.15-26.85 173.1-22Q173.1-21.7 173.3-21.7 173.5-21.7 173.7-21.85L173.7-21.85Q174.95-22.7 177.65-22.7L177.65-22.7Q182.2-22.7 183.95-19.6L183.95-19.6Q184.6-18.45 184.6-16.55 184.6-14.65 184.38-11.3 184.15-7.95 184.15-6.55L184.15-6.55Q184.15-1.65 185.55-0.05L185.55-0.05Q185.8 0.2 185.8 0.45L185.8 0.45Q185.8 0.95 183.65 0.95L183.65 0.95Q177.85 0.95 177.85-4.45L177.85-4.45Q177.85-6.55 178.85-10.35 179.85-14.15 179.85-15.95 179.85-17.75 179-18.73 178.15-19.7 176.65-19.7 175.15-19.7 174.28-19.05 173.4-18.4 173.2-17.7L173.2-17.7 173.05-17.05Q173-16.1 173-11 173-5.9 173.25-4.38 173.5-2.85 173.5-2.65L173.5-2.65Q173.5-1.2 171.55-0.08 169.6 1.05 167.7 1.05L167.7 1.05Q167 1.05 167 0.25L167 0.25 167.1-0.7Q168.2-9.1 168.2-18.9L168.2-18.9Q168.2-22.7 167.9-26.6L167.9-26.6 167.85-27.7Q167.75-29.1 167.28-30.1 166.8-31.1 166.4-31.4L166.4-31.4 165.95-31.65Q165.6-31.85 165.6-32.1L165.6-32.1Q165.6-32.8 167.95-33.83 170.3-34.85 171.58-34.85 172.85-34.85 172.95-34.3L172.95-34.3Q173.15-31.75 173.15-26.85ZM213-15L213-15 212.9-8.6Q212.9-1.95 214.35-0.6L214.35-0.6Q214.55-0.4 214.55-0.15L214.55-0.15Q214.55 0.6 211.33 0.6 208.1 0.6 207.9-1.3L207.9-1.3Q207.85-1.75 207.85-3.15L207.85-3.15 208.05-11.15Q208.05-11.5 207.65-11.5L207.65-11.5Q205.25-11.5 203.15-10.15 201.05-8.8 201.05-6.7L201.05-6.7Q201.05-5.6 201.65-4.85 202.25-4.1 203.13-4.1 204-4.1 204.58-4.45 205.15-4.8 205.25-4.85L205.25-4.85Q206.1-4.75 206.1-3.08 206.1-1.4 204.55-0.38 203 0.65 201.3 0.65 199.6 0.65 198.38 0.05 197.15-0.55 196.6-1.3 196.05-2.05 195.7-3L195.7-3Q195.35-4.15 195.35-5L195.35-5Q195.35-8.5 197.55-10.6 199.75-12.7 203.2-13.6L203.2-13.6Q207.75-14.5 207.95-15.25L207.95-15.25Q208.1-15.8 208.1-17.1L208.1-17.1Q208.1-19.75 205.4-19.75L205.4-19.75Q204.25-19.75 203.35-19.03 202.45-18.3 202.45-17.2L202.45-17.2 202.75-16Q202.65-15.15 200.95-15L200.95-15 200.4-14.95Q198.9-14.95 198.03-15.7 197.15-16.45 197.15-17.7L197.15-17.7Q197.15-18.5 197.68-19.48 198.2-20.45 199-21.05 199.8-21.65 201.48-22.13 203.15-22.6 204.7-22.6 206.25-22.6 207.1-22.5 207.95-22.4 209.43-22.03 210.9-21.65 211.88-20.6 212.85-19.55 212.93-18.38 213-17.2 213-15ZM231.55-17.2L231.3-13.4 231.5-11.65Q231.5-10.7 229.7-10.7L229.7-10.7Q226.05-10.7 226.05-13.45L226.05-13.45Q226.05-14.1 226.4-15.25 226.75-16.4 226.75-17.25 226.75-18.1 226.25-18.73 225.75-19.35 224.8-19.35 223.85-19.35 223.18-18.68 222.5-18 222.35-17.3L222.35-17.3 222.15-16.6Q221.85-15.05 221.85-11.43 221.85-7.8 221.95-5.73 222.05-3.65 222.15-2.88 222.25-2.1 222.25-1.95L222.25-1.95Q222.25-0.7 220.7 0.08 219.15 0.85 217.6 0.85 216.05 0.85 216.05 0.2L216.05 0.2 216.3-1.35Q217-5.7 217-12.7 217-19.7 216.5-22.2L216.5-22.2Q216.5-22.8 217.55-22.8L217.55-22.8Q220.25-22.8 221.15-20.95L221.15-20.95Q221.2-20.75 221.33-20.75 221.45-20.75 222-21.2L222-21.2Q223.65-22.55 225.9-22.55L225.9-22.55Q227.3-22.55 228.7-22L228.7-22Q231.55-20.85 231.55-17.2L231.55-17.2ZM238.55-12.7L238.55-12.7 238.6-11.45Q238.6-11.15 239-11.15L239-11.15Q240.6-11.3 241.8-11.98 243-12.65 243.6-13.5L243.6-13.5Q244.8-15.35 244.9-16.7L244.9-16.7 244.95-17.3Q244.95-20 242.8-20L242.8-20Q241.2-20 240.2-18.6L240.2-18.6Q238.55-16.4 238.55-12.7ZM249.45-6.05L249.45-6.05Q249.45-4.15 248.68-2.73 247.9-1.3 246.93-0.63 245.95 0.05 244.65 0.45L244.65 0.45Q243 0.95 241.5 0.95L241.5 0.95Q237.3 0.95 235.3-2.2 233.3-5.35 233.3-10.23 233.3-15.1 235.78-18.9 238.25-22.7 243.2-22.7L243.2-22.7Q247.7-22.7 249.3-19.55L249.3-19.55Q249.95-18.35 249.95-17.28 249.95-16.2 249.85-15.58 249.75-14.95 249.15-13.7 248.55-12.45 247.55-11.45 246.55-10.45 244.4-9.55 242.25-8.65 239.35-8.35L239.35-8.35Q238.95-8.35 238.95-8L238.95-8Q238.95-7.55 239.28-6.68 239.6-5.8 240-5.2L240-5.2Q241.1-3.8 243.25-3.8L243.25-3.8Q245.4-3.8 246.9-5.2L246.9-5.2Q247.7-5.95 248.2-7.05L248.2-7.05Q248.4-7.45 248.73-7.45 249.05-7.45 249.25-6.9 249.45-6.35 249.45-6.05ZM261.7-7.65L261.7-7.65Q261.8-12.7 261.8-15.95 261.8-19.2 261.35-22.15L261.35-22.15Q261.35-22.65 262.35-22.65 263.35-22.65 264.08-22.4 264.8-22.15 265.1-21.85L265.1-21.85Q265.9-21.05 266.03-21.05 266.15-21.05 266.8-21.5L266.8-21.5Q268.75-22.75 271.13-22.75 273.5-22.75 275.28-21.55 277.05-20.35 277.8-18.4L277.8-18.4Q279.15-15.05 279.15-11.3L279.15-11.3Q279.15-7.6 277.8-3.9L277.8-3.9Q277.05-1.9 275.6-0.63 274.15 0.65 272.2 0.65L272.2 0.65Q268.35 0.65 268.35-3.8L268.35-3.8Q268.35-5 268.85-5L268.85-5Q268.95-5 269.43-4.78 269.9-4.55 270.35-4.55L270.35-4.55Q273.9-4.55 273.9-12.08 273.9-19.6 270.1-19.6L270.1-19.6Q269.05-19.6 268.33-19.13 267.6-18.65 267.4-18.2L267.4-18.2 267.2-17.7Q266.5-13.2 266.5-0.35L266.5-0.35Q266.5 5.45 266.73 7.98 266.95 10.5 266.95 11 266.95 11.5 266.65 11.9L266.65 11.9Q265.65 13.2 263.95 14.23 262.25 15.25 260.95 15.25L260.95 15.25Q260.45 15.25 260.45 14.6L260.45 14.6Q261.25 9.55 261.7-7.65ZM296.35-17.2L296.1-13.4 296.3-11.65Q296.3-10.7 294.5-10.7L294.5-10.7Q290.85-10.7 290.85-13.45L290.85-13.45Q290.85-14.1 291.2-15.25 291.55-16.4 291.55-17.25 291.55-18.1 291.05-18.73 290.55-19.35 289.6-19.35 288.65-19.35 287.98-18.68 287.3-18 287.15-17.3L287.15-17.3 286.95-16.6Q286.65-15.05 286.65-11.43 286.65-7.8 286.75-5.73 286.85-3.65 286.95-2.88 287.05-2.1 287.05-1.95L287.05-1.95Q287.05-0.7 285.5 0.08 283.95 0.85 282.4 0.85 280.85 0.85 280.85 0.2L280.85 0.2 281.1-1.35Q281.8-5.7 281.8-12.7 281.8-19.7 281.3-22.2L281.3-22.2Q281.3-22.8 282.35-22.8L282.35-22.8Q285.05-22.8 285.95-20.95L285.95-20.95Q286-20.75 286.13-20.75 286.25-20.75 286.8-21.2L286.8-21.2Q288.45-22.55 290.7-22.55L290.7-22.55Q292.1-22.55 293.5-22L293.5-22Q296.35-20.85 296.35-17.2L296.35-17.2ZM303.35-12.7L303.35-12.7 303.4-11.45Q303.4-11.15 303.8-11.15L303.8-11.15Q305.4-11.3 306.6-11.98 307.8-12.65 308.4-13.5L308.4-13.5Q309.6-15.35 309.7-16.7L309.7-16.7 309.75-17.3Q309.75-20 307.6-20L307.6-20Q306-20 305-18.6L305-18.6Q303.35-16.4 303.35-12.7ZM314.25-6.05L314.25-6.05Q314.25-4.15 313.48-2.73 312.7-1.3 311.73-0.63 310.75 0.05 309.45 0.45L309.45 0.45Q307.8 0.95 306.3 0.95L306.3 0.95Q302.1 0.95 300.1-2.2 298.1-5.35 298.1-10.23 298.1-15.1 300.58-18.9 303.05-22.7 308-22.7L308-22.7Q312.5-22.7 314.1-19.55L314.1-19.55Q314.75-18.35 314.75-17.28 314.75-16.2 314.65-15.58 314.55-14.95 313.95-13.7 313.35-12.45 312.35-11.45 311.35-10.45 309.2-9.55 307.05-8.65 304.15-8.35L304.15-8.35Q303.75-8.35 303.75-8L303.75-8Q303.75-7.55 304.08-6.68 304.4-5.8 304.8-5.2L304.8-5.2Q305.9-3.8 308.05-3.8L308.05-3.8Q310.2-3.8 311.7-5.2L311.7-5.2Q312.5-5.95 313-7.05L313-7.05Q313.2-7.45 313.53-7.45 313.85-7.45 314.05-6.9 314.25-6.35 314.25-6.05ZM333.35-5.75L333.35-5.75Q333.35-2.9 331.07-1.03 328.8 0.85 325.65 0.85L325.65 0.85Q321.05 0.85 318.9-1.93 316.75-4.7 316.75-9.45L316.75-9.45Q316.75-14.5 319-18.4L319-18.4Q320.1-20.4 322.15-21.55 324.2-22.7 326.95-22.7L326.95-22.7Q331.1-22.7 332.8-19.9L332.8-19.9Q333.5-18.75 333.5-17.2L333.5-17.2Q333.5-14.8 331.5-13.6L331.5-13.6Q330.7-13.15 330.02-13.15 329.35-13.15 328.93-13.23 328.5-13.3 327.8-13.9 327.1-14.5 327.1-15.55L327.1-15.55Q327.15-16.1 327.95-16.45L327.95-16.45Q328.7-16.9 328.7-18.05L328.7-18.05Q328.7-20 326.3-20L326.3-20Q325.7-20 324.88-19.48 324.05-18.95 323.5-18.13 322.95-17.3 322.48-15.53 322-13.75 322-12.13 322-10.5 322.13-9.68 322.25-8.85 322.68-7.43 323.1-6 324.27-5.1 325.45-4.2 327.2-4.2L327.2-4.2Q329.3-4.2 330.9-5.95L330.9-5.95Q331.55-6.65 331.95-7.65L331.95-7.65Q332.15-8.05 332.45-8.05L332.45-8.05Q332.9-8.05 333.13-7.23 333.35-6.4 333.35-5.75ZM341.15-26.75L341.15-26.75 339.95-26.8Q338.6-26.8 338.2-26.15L338.2-26.15Q338.1-26 337.95-26L337.95-26Q337.3-26 337.3-28.23 337.3-30.45 337.98-31.05 338.65-31.65 340.32-31.65 342-31.65 342.6-31.08 343.2-30.5 343.2-29.15 343.2-27.8 342.75-27.28 342.3-26.75 341.15-26.75ZM337.15-1.5L337.15-1.5 337.7-13.15Q337.7-17.3 336.75-18.8L336.75-18.8Q336.45-19.3 336.05-19.55L336.05-19.55Q335.75-19.65 335.75-19.95L335.75-19.95Q335.75-20.85 338.3-21.7 340.85-22.55 342.02-22.55 343.2-22.55 343.25-21.95L343.25-21.95Q343.25-20.95 342.98-16.28 342.7-11.6 342.7-6.45 342.7-1.3 343.3-0.05L343.3-0.05Q343.45 0.2 343.45 0.45L343.45 0.45Q343.45 1.1 341.55 1.1 339.65 1.1 337.65 0.1L337.65 0.1Q337.15-0.15 337.15-1.5ZM351.25-18.85L351.25-18.85Q349.95-18.8 349.38-18.78 348.8-18.75 348.8-19.05 348.8-19.35 349.1-19.65L349.1-19.65Q352.3-22.6 359.9-22.6L359.9-22.6Q362.5-22.6 364-22.15L364-22.15 364.5-22Q365.1-21.75 365.1-21.45L365.1-21.45Q365.1-21.2 364.75-21.05L364.75-21.05Q363.4-20.65 362.15-19.78 360.9-18.9 360.9-18.55L360.9-18.55 361.2-18.2Q362.8-17.3 363.68-15.35 364.55-13.4 364.65-11.9L364.65-11.9 364.75-10.35Q364.75-5.4 362-2.2 359.25 1 354.5 1L354.5 1Q352.1 1 350.35 0.15 348.6-0.7 347.78-1.78 346.95-2.85 346.45-4.2L346.45-4.2Q345.85-6.05 345.85-8.03 345.85-10 346.53-12 347.2-14 348.08-14.95 348.95-15.9 350.05-16.5L350.05-16.5Q351.45-17.25 352.3-17.25 353.15-17.25 353.15-16.9L353.15-16.9 352.85-16.4Q351.75-15.1 351.28-13 350.8-10.9 350.8-9.28 350.8-7.65 351.2-6.05 351.6-4.45 352.1-3.68 352.6-2.9 353.25-2.5L353.25-2.5Q354.2-1.9 355.25-1.9 356.3-1.9 357.3-2.73 358.3-3.55 358.75-4.9L358.75-4.9Q359.65-7.4 359.65-10.05L359.65-10.05Q359.65-14.25 357.53-16.55 355.4-18.85 351.25-18.85ZM385.05-22.25L385.05-22.25Q384.15-16.85 384.15-8.5L384.15-8.5Q384.15-2.35 384.65-0.4L384.65-0.4 384.85 0.25Q384.85 0.9 383.75 0.9L383.75 0.9Q379.9 0.9 379.35-1.25L379.35-1.25Q379.3-1.5 379.13-1.5 378.95-1.5 378.8-1.3L378.8-1.3Q377.25 0.75 374 0.75L374 0.75Q372.2 0.75 370.25-0.15L370.25-0.15Q369.05-0.7 368.3-2.08 367.55-3.45 367.55-5.45L367.55-5.45 368.3-16.4Q368.3-19.85 367.6-21.3L367.6-21.3Q367.35-21.85 367.35-22L367.35-22Q367.35-22.3 367.6-22.4L367.6-22.4Q368.4-22.65 369.65-22.65L369.65-22.65Q374.5-22.65 374.5-18.65L374.5-18.65Q374.5-17.4 373.48-12.95 372.45-8.5 372.45-6.63 372.45-4.75 373.28-3.75 374.1-2.75 375.58-2.75 377.05-2.75 377.9-3.8 378.75-4.85 378.9-5.9L378.9-5.9 379.05-6.95Q379.25-8.7 379.25-13.1 379.25-17.5 378.98-18.68 378.7-19.85 378.7-20.15L378.7-20.15Q378.7-21.4 380.7-22.13 382.7-22.85 384.3-22.85L384.3-22.85Q385.05-22.85 385.05-22.25ZM402.65-6.85L402.65-6.85Q402.65-4.7 401.83-3.1 401-1.5 399.95-0.75 398.9 0 397.45 0.45L397.45 0.45Q395.55 1.05 394 1.05L394 1.05Q390.75 1.05 388.6-0.23 386.45-1.5 386.45-4.3L386.45-4.3Q386.45-5.95 387.35-7L387.35-7Q388.75-8.55 390.7-8.55L390.7-8.55Q391.3-8.55 391.3-8L391.3-8Q391.3-7.95 391.08-7.23 390.85-6.5 390.85-5.4 390.85-4.3 391.73-3.45 392.6-2.6 393.85-2.6 395.1-2.6 395.85-3.03 396.6-3.45 396.9-4.1L396.9-4.1Q397.35-5 397.35-5.8L397.35-5.8Q397.35-7.25 395.9-8.3 394.45-9.35 392.7-9.95 390.95-10.55 389.5-11.95 388.05-13.35 388.05-15.45L388.05-15.45Q388.05-19.05 390.33-20.85 392.6-22.65 396.5-22.65L396.5-22.65Q398.2-22.65 400.08-22.18 401.95-21.7 401.95-20.58 401.95-19.45 401.58-18.5 401.2-17.55 400.65-17.55L400.65-17.55Q400.35-17.55 400.25-17.78 400.15-18 399.9-18.3 399.65-18.6 398.7-19.07 397.75-19.55 397.08-19.55 396.4-19.55 396.18-19.53 395.95-19.5 395.4-19.38 394.85-19.25 394.4-19L394.4-19Q393.25-18.35 393.25-17.1L393.25-17.1Q393.25-16.3 393.6-15.93 393.95-15.55 394.15-15.35 394.35-15.15 394.85-14.88 395.35-14.6 395.55-14.5 395.75-14.4 396.45-14.08 397.15-13.75 397.35-13.65L397.35-13.65Q402.65-11.15 402.65-6.85Z" opacity="1" transform="matrix(1,0,0,1,0,0)" fill="#556970" class="slogan-text-1" data-fill-palette-color="secondary" id="text-1"></path></svg></g></svg></g></svg></g></svg></g><g transform="matrix(1,0,0,1,96.10039378324731,0)"><svg viewBox="0 0 203.31921243350536 203.31921243350536" height="203.31921243350536" width="203.31921243350536"><g><svg></svg></g><g id="icon-0"><svg viewBox="0 0 203.31921243350536 203.31921243350536" height="203.31921243350536" width="203.31921243350536"><g><path d="M0 101.66c0-56.145 45.515-101.66 101.66-101.66 56.145 0 101.66 45.515 101.659 101.66 0 56.145-45.515 101.66-101.659 101.659-56.145 0-101.66-45.515-101.66-101.659zM101.66 187.858c47.606 0 86.199-38.592 86.198-86.198 0-47.606-38.592-86.199-86.198-86.199-47.606 0-86.199 38.592-86.199 86.199 0 47.606 38.592 86.199 86.199 86.198z" data-fill-palette-color="accent" fill="#aba944" stroke="transparent"></path><ellipse rx="100.64301015458516" ry="100.64301015458516" cx="101.65960621675268" cy="101.65960621675268" fill="#aba944" stroke="transparent" stroke-width="0" fill-opacity="1" data-fill-palette-color="accent"></ellipse></g><g transform="matrix(1,0,0,1,64.86682223808526,90.23525411308793)"><svg viewBox="0 0 73.58556795733485 22.848704207329476" height="22.848704207329476" width="73.58556795733485"><g><svg xmlns="http://www.w3.org/2000/svg" xmlns:xlink="http://www.w3.org/1999/xlink" version="1.1" x="0" y="0" viewBox="7.2 37.3 86.31094364747213 26.799999999999997" enable-background="new 0 0 100 100" xml:space="preserve" height="22.848704207329476" width="73.58556795733485" class="icon-dxe-0" data-fill-palette-color="quaternary" id="dxe-0"><path fill="#ffffff" d="M92.3 45.3H8.4C7.7 45.3 7.2 44.7 7.2 44.1V38.5C7.2 37.8 7.8 37.3 8.4 37.3H92.3C93 37.3 93.5 37.9 93.5 38.5V44C93.6 44.7 93 45.3 92.3 45.3" data-fill-palette-color="quaternary"></path><path fill="#ffffff" d="M58.7 64.1H42C41.6 64.1 41.3 63.9 41.1 63.6S40.9 62.9 41.1 62.6L49.5 48.1C49.7 47.8 50 47.6 50.4 47.6S51.1 47.8 51.3 48.1L59.6 62.5C59.7 62.7 59.8 62.9 59.8 63.1 59.7 63.6 59.3 64.1 58.7 64.1" data-fill-palette-color="quaternary"></path></svg></g></svg></g></svg></g></svg></g><g></g></svg></g><defs></defs></svg><rect width="179.30913958479238" height="247.2" fill="none" stroke="none" visibility="hidden"></rect></g></svg></g></svg>