<?xml version="1.0" encoding="iso-8859-1"?>
<!-- Uploaded to: SVG Repo, www.svgrepo.com, Generator: SVG Repo Mixer Tools -->
<svg fill="#000000" version="1.1" id="Layer_1" xmlns="http://www.w3.org/2000/svg" xmlns:xlink="http://www.w3.org/1999/xlink" 
	 viewBox="0 0 512.001 512.001" xml:space="preserve">
<g>
	<g>
		<path d="M497.482,118.169c-29.438-16.513-57.166-23.95-82.769-22.227c1.717-25.601-5.714-53.334-22.227-82.77L385.097,0
			l-13.469,6.833c-41.547,21.078-66.88,49.012-75.294,83.027c-7.948,32.13,1.325,61.752,10.003,80.299
			c-27.496,0.155-53.429,2.348-77.482,6.556c-2.719-20.354-14.755-37.222-34.781-48.301c-16.531-9.145-32.872-11.391-34.68-11.618
			l-4.278-0.534l-3.954,1.72c-50.199,21.824-86.472,63.222-104.899,119.712c-11.113,34.068-12.578,63.85-12.71,74.635
			C-10.094,399.039,3.07,492.478,3.66,496.465l1.71,11.56l11.56,1.712c0.933,0.138,15.685,2.263,38.514,2.263
			c12.394,0,27.168-0.627,43.401-2.537c61.564-7.247,115.112-29.788,154.856-65.187c59.209-52.735,89.282-132.981,89.548-238.698
			c13.402,5.945,31.792,11.766,52.427,11.765c8.083,0,16.513-0.893,25.119-3.022c34.014-8.416,61.947-33.748,83.025-75.294
			l6.833-13.469L497.482,118.169z M76.511,246.527c15.314-46.222,43.2-79.077,82.923-97.726c4.613,1.028,12.522,3.247,20.048,7.542
			c14.729,8.403,18.03,18.841,18.436,27.158c-0.337,0.09-0.663,0.192-1,0.283c-2.516,0.68-5.01,1.385-7.481,2.115
			c-0.354,0.105-0.715,0.202-1.068,0.307c-2.804,0.84-5.573,1.719-8.318,2.623c-0.793,0.261-1.575,0.535-2.362,0.802
			c-1.982,0.671-3.95,1.356-5.901,2.062c-0.899,0.324-1.795,0.653-2.688,0.985c-1.964,0.732-3.911,1.483-5.842,2.251
			c-0.721,0.287-1.449,0.565-2.166,0.856c-2.604,1.057-5.181,2.143-7.723,3.265c-0.424,0.187-0.838,0.385-1.26,0.574
			c-2.125,0.95-4.229,1.921-6.31,2.917c-0.796,0.38-1.584,0.769-2.374,1.156c-1.755,0.861-3.495,1.737-5.22,2.63
			c-0.771,0.399-1.542,0.796-2.306,1.201c-2.045,1.084-4.068,2.193-6.07,3.326c-0.359,0.203-0.725,0.397-1.082,0.6
			c-2.346,1.342-4.658,2.72-6.943,4.127c-0.615,0.379-1.219,0.768-1.829,1.152c-1.685,1.057-3.355,2.129-5.005,3.222
			c-0.725,0.48-1.447,0.964-2.165,1.45c-1.623,1.1-3.228,2.219-4.818,3.353c-0.595,0.424-1.197,0.842-1.787,1.271
			c-2.144,1.559-4.261,3.144-6.343,4.768c-0.252,0.196-0.494,0.401-0.745,0.597c-1.822,1.433-3.621,2.893-5.395,4.377
			c-0.628,0.525-1.247,1.058-1.869,1.589c-1.426,1.218-2.837,2.45-4.231,3.701c-0.625,0.56-1.249,1.118-1.868,1.684
			c-1.583,1.451-3.144,2.924-4.685,4.418c-0.346,0.336-0.701,0.662-1.046,0.999c-1.865,1.83-3.696,3.695-5.5,5.588
			c-0.122,0.127-0.249,0.249-0.371,0.376C74.878,251.62,75.663,249.086,76.511,246.527z M96.144,478.068
			c-26.711,3.226-49.362,2.595-62.476,1.682c-1.598-23.547-2.252-77.899,18.595-131.956c26.033,9.33,86.238,38.445,111.787,113.865
			C139.538,470.959,115.679,475.709,96.144,478.068z M232.939,420.594c-12.679,11.32-26.27,20.502-40.109,27.964
			c-19.722-55.659-55.708-88.791-83.564-107.145c-16.638-10.963-32.215-17.983-43.699-22.281
			c30.644-55.691,81.709-92.03,151.878-108.025c28.273-6.446,59.927-9.624,94.318-9.47
			C312.225,299.838,285.739,373.451,232.939,420.594z M413.233,183.748c-32.63,8.071-63.319-9.319-71.686-14.641
			c-5.32-8.363-22.714-39.054-14.641-71.684c5.216-21.084,20.414-39.482,45.246-54.828c11.591,25.468,14.264,48.35,7.937,68.184
			l-9.273,29.062l29.062-9.273c19.832-6.328,42.715-3.655,68.183,7.936C452.713,163.334,434.316,178.531,413.233,183.748z"/>
	</g>
</g>
<g>
	<g>
		
			<rect x="59.319" y="390.385" transform="matrix(0.7071 -0.7071 0.7071 0.7071 -264.8413 171.1854)" width="29.799" height="29.799"/>
	</g>
</g>
</svg>