<?xml version="1.0" encoding="iso-8859-1"?>
<!-- Uploaded to: SVG Repo, www.svgrepo.com, Generator: SVG Repo Mixer Tools -->
<svg fill="#000000" height="800px" width="800px" version="1.1" id="Layer_1" xmlns="http://www.w3.org/2000/svg" xmlns:xlink="http://www.w3.org/1999/xlink" 
	 viewBox="0 0 512 512" xml:space="preserve">
<g>
	<g>
		<path d="M267.13,367.304c-67.619,0-122.435-54.816-122.435-122.435c0-39.956-32.392-72.348-72.348-72.348S0,204.914,0,244.87
			C0,392.401,119.599,512,267.13,512c39.956,0,72.348-32.392,72.348-72.348S307.086,367.304,267.13,367.304z"/>
	</g>
</g>
<g>
	<g>
		<path d="M439.652,194.783c-67.619,0-122.435-54.816-122.435-122.435C317.217,32.392,284.826,0,244.87,0
			s-72.348,32.392-72.348,72.348c0,147.532,119.599,267.13,267.13,267.13c39.956,0,72.348-32.392,72.348-72.348
			S479.608,194.783,439.652,194.783z"/>
	</g>
</g>
</svg>